<svg width="223" height="74" viewBox="0 0 223 74" fill="none" xmlns="http://www.w3.org/2000/svg">
<path d="M84.9935 41.4364H98.3555V47.5212H84.9935V41.4364ZM85.5691 52.7838H100.617V59.0742H77.5108V30.2945H100.082V36.5849H85.5691V52.7838ZM103.427 50.3581V44.3555H115.432V50.3581H103.427ZM120.271 59.0742V30.2945H128.411V52.6193H142.143V59.0742H120.271ZM145.365 59.0742V30.2945H152.066L163.989 49.8647H160.453L172.048 30.2945H178.749L178.831 59.0742H171.349L171.266 41.6831H172.541L163.866 56.2374H160.248L151.326 41.6831H152.889V59.0742H145.365ZM184.591 59.0742V30.2945H192.732V59.0742H184.591ZM208.638 59.6498C206.28 59.6498 204.005 59.362 201.813 58.7864C199.647 58.1834 197.879 57.416 196.509 56.484L199.181 50.4814C200.47 51.3037 201.95 51.9889 203.622 52.5371C205.321 53.0579 207.007 53.3183 208.679 53.3183C209.803 53.3183 210.707 53.2223 211.392 53.0305C212.077 52.8112 212.571 52.5371 212.872 52.2082C213.201 51.8519 213.366 51.4407 213.366 50.9748C213.366 50.317 213.064 49.7962 212.461 49.4125C211.858 49.0287 211.077 48.7135 210.118 48.4668C209.158 48.2202 208.089 47.9735 206.911 47.7268C205.76 47.4801 204.595 47.1649 203.416 46.7812C202.265 46.3974 201.21 45.9041 200.25 45.3011C199.291 44.6707 198.51 43.8621 197.907 42.8754C197.304 41.8612 197.002 40.5867 197.002 39.0518C197.002 37.325 197.468 35.7627 198.4 34.3648C199.36 32.9669 200.785 31.8431 202.676 30.9935C204.567 30.1438 206.925 29.7189 209.748 29.7189C211.639 29.7189 213.489 29.9382 215.298 30.3768C217.134 30.7879 218.765 31.4046 220.191 32.2269L217.683 38.2706C216.312 37.5306 214.955 36.9824 213.612 36.6261C212.269 36.2423 210.967 36.0505 209.707 36.0505C208.583 36.0505 207.678 36.1738 206.993 36.4205C206.308 36.6398 205.814 36.9413 205.513 37.325C205.211 37.7087 205.061 38.1473 205.061 38.6406C205.061 39.271 205.349 39.7781 205.924 40.1618C206.527 40.5182 207.308 40.8197 208.268 41.0664C209.254 41.2856 210.323 41.5186 211.474 41.7653C212.653 42.012 213.818 42.3272 214.969 42.7109C216.148 43.0672 217.217 43.5606 218.176 44.191C219.135 44.794 219.903 45.6026 220.478 46.6167C221.081 47.6035 221.383 48.8506 221.383 50.3581C221.383 52.03 220.903 53.5787 219.944 55.0039C219.012 56.4018 217.6 57.5256 215.709 58.3753C213.845 59.225 211.488 59.6498 208.638 59.6498Z" fill="#3170B5"/>
<mask id="mask0_34573_2365" style="mask-type:alpha" maskUnits="userSpaceOnUse" x="0" y="0" width="58" height="62">
<path d="M27.8902 57.932C28.2359 56.9485 28.7903 56.1616 28.7903 55.1214C28.7903 53.4702 29.7679 52.5701 30.1911 51.366C31.899 46.4839 33.6098 41.6048 35.3176 36.7228C37.9792 32.1805 40.6408 27.6382 43.3024 23.0929L53.296 23.9305L54.0173 22.625L54.6163 21.5282L54.4435 21.3732L57.0574 17.272L37.9345 0L0.421875 33.7959L24.4924 61.5235L27.8902 57.935V57.932Z" fill="white"/>
</mask>
<g mask="url(#mask0_34573_2365)">
<path d="M44.4586 59.6514L47.609 59.0702L47.5136 56.0807L47.4838 55.1001L48.4048 54.7544C48.8846 54.5756 49.3526 54.3759 49.7997 54.1643C50.2855 53.9348 50.7385 53.6963 51.1498 53.4549L51.9873 52.9661L52.7235 53.6039L54.9857 55.5651L57.4297 53.4817L55.8471 50.9304L55.3315 50.1018L55.9514 49.3478C56.2554 48.9752 56.5624 48.5699 56.8634 48.1287H56.8694C57.1526 47.7144 57.4238 47.2853 57.6771 46.8412L58.16 45.9947L59.1167 46.1795L62.0644 46.7488L63.1404 43.7236L60.4997 42.3078L59.6383 41.8458L59.7992 40.8831C59.8797 40.4003 59.9393 39.8966 59.981 39.375C60.0198 38.8862 60.0377 38.3765 60.0347 37.852L60.0287 36.8744L60.9557 36.5525L63.7842 35.5749L63.203 32.4245L60.2135 32.5198L59.2329 32.5497L58.8872 31.6287C58.7084 31.1488 58.5087 30.6809 58.2971 30.2338C58.0646 29.748 57.8261 29.2949 57.5877 28.8836L57.0989 28.0461L57.7367 27.3099L59.7009 25.0448L57.6175 22.6007L55.0632 24.1834L54.2346 24.699L53.4806 24.0791C53.0871 23.7572 52.6818 23.4532 52.2675 23.167L52.2616 23.1611C51.8473 22.8749 51.4151 22.6067 50.974 22.3534L50.1275 21.8705L50.3123 20.9138L50.8816 17.9631L47.8564 16.8871L46.4406 19.5278L45.9787 20.3892L45.0219 20.2312C44.551 20.1537 44.0443 20.0912 43.5078 20.0494C43.0131 20.0107 42.5064 19.9898 41.9937 19.9928L41.0102 19.9988L40.6883 19.0718L39.7107 16.2433L36.5603 16.8245L36.6556 19.814L36.6854 20.7946L35.7645 21.1403C35.2846 21.3191 34.8197 21.5188 34.3696 21.7304C33.8808 21.9629 33.4307 22.1984 33.0164 22.4398L32.1789 22.9286L31.4427 22.2908L29.1805 20.3266L26.7365 22.41L28.3192 24.9613L28.8318 25.7899L28.2119 26.5439C27.887 26.9403 27.583 27.3457 27.2969 27.757V27.763C26.9958 28.2011 26.7246 28.6333 26.4862 29.0505L26.0033 29.897L25.0466 29.7122L22.0989 29.1429L21.0229 32.1681L23.6636 33.5839L24.525 34.0459L24.3641 35.0056C24.2836 35.4884 24.224 35.9921 24.1822 36.5137C24.1435 37.0085 24.1226 37.5152 24.1286 38.0278L24.1346 39.0114L23.2076 39.3303L20.3791 40.3079L20.9603 43.4583L23.9498 43.3629L24.9303 43.3331L25.2761 44.2541C25.4549 44.7339 25.6546 45.2019 25.8662 45.649C26.0957 46.1348 26.3342 46.5878 26.5756 46.9991L27.0644 47.8367L26.4266 48.5728L24.4624 50.838L26.5458 53.282L28.7812 51.8961V55.1061C29.1537 55.4101 31.4606 52.4147 31.8958 52.7157C32.3369 53.0197 32.7661 53.291 33.1863 53.5294L34.0328 54.0152L33.848 54.972L33.2787 57.9227L36.3039 58.9986L37.7197 56.3579L38.1787 55.4995L39.1354 55.6575C39.6063 55.735 40.113 55.7976 40.6525 55.8393C41.1473 55.878 41.6539 55.8989 42.1666 55.8959L43.1502 55.89L43.472 56.8169L44.4497 59.6454L44.4586 59.6514ZM49.2602 61.547L42.6435 62.766L42.259 61.6543L41.2098 58.6171C40.9565 58.6052 40.7002 58.5903 40.4468 58.5694C40.1935 58.5486 39.9372 58.5217 39.6749 58.4919L38.1578 61.3264L37.6034 62.3577L36.5036 61.9672L31.2729 60.1104L30.1641 59.7169L30.3847 58.5694L30.9957 55.4071C30.7721 55.267 30.5575 55.124 30.3519 54.9839C30.1462 54.8438 29.9406 54.6948 29.7319 54.5368L26.9958 56.2357L26.0033 56.8497L25.2403 55.9555L21.6399 51.7292L20.8828 50.841L21.6488 49.9558L23.756 47.5267C23.6338 47.2942 23.5176 47.0617 23.4103 46.8352C23.3 46.6057 23.1957 46.3732 23.0944 46.1378L19.8814 46.2391L18.7041 46.2778L17.2734 38.5077L21.4223 37.0741C21.4342 36.8207 21.4491 36.5644 21.47 36.311C21.4908 36.0577 21.5147 35.8014 21.5475 35.5421L18.716 34.025L17.6818 33.4706L18.0752 32.3678L19.935 27.1371L20.3255 26.0343L21.4759 26.2548L24.6383 26.8658C24.7783 26.6453 24.9184 26.4307 25.0615 26.225H25.0645C25.2105 26.0164 25.3595 25.8078 25.5086 25.6051L23.8097 22.866L23.1927 21.8705L24.0839 21.1105L28.3102 17.51L29.2014 16.75L30.0866 17.519L32.5157 19.6262C32.7482 19.504 32.9807 19.3878 33.2102 19.2775C33.4397 19.1672 33.6722 19.0629 33.9046 18.9615L33.8033 15.7486L33.7646 14.5713L41.5347 13.1406L41.9192 14.2524L42.9683 17.2895C43.2217 17.3014 43.478 17.3163 43.7314 17.3372C43.9847 17.358 44.241 17.3849 44.5033 17.4147L46.0204 14.5802L46.5718 13.549L52.9024 15.7963L54.0111 16.1897L53.7906 17.3372L53.1795 20.5025C53.3941 20.6396 53.6058 20.7797 53.8174 20.9227H53.8233C54.032 21.0717 54.2376 21.2178 54.4403 21.3698L57.1794 19.6709L58.1719 19.0569L58.9349 19.9511L62.5353 24.1774L63.2924 25.0656L62.5264 25.9478L60.4192 28.3769C60.5414 28.6094 60.6576 28.8419 60.7679 29.0714C60.8782 29.3009 60.9825 29.5334 61.0838 29.7659L65.4711 29.6258L66.9018 37.396L65.79 37.7804L62.7529 38.8296C62.741 39.0829 62.7261 39.3392 62.7052 39.5956C62.6844 39.8489 62.6605 40.1052 62.6277 40.3645L65.4622 41.8816L66.4964 42.436L66.106 43.5388L64.2462 48.7695L63.8527 49.8723L62.7022 49.6518L59.537 49.0408C59.3999 49.2554 59.2598 49.47 59.1137 49.6786H59.1167C58.9736 49.8872 58.8246 50.0959 58.6696 50.3045L60.3685 53.0406L60.9855 54.0361L60.0943 54.7961L54.9798 59.1566L54.0946 58.3876L51.6655 56.2804C51.433 56.4026 51.2005 56.5188 50.974 56.6261C50.7445 56.7364 50.512 56.8407 50.2765 56.9421L50.3779 60.1551L50.4136 61.3324L49.2602 61.544V61.547Z" fill="#3170B5"/>
</g>
<path opacity="0.65" d="M34.3666 44.1172C33.1833 44.1172 32.2266 45.1186 32.2266 46.2572C32.2266 47.4404 33.1833 48.3972 34.3666 48.3972C35.5498 48.3972 36.5066 47.4404 36.5066 46.2572C36.5066 45.0739 35.5498 44.1172 34.3666 44.1172Z" fill="#F26769"/>
<path opacity="0.53" d="M34.3626 50.2217C32.1749 50.2217 30.3538 48.4901 30.3538 46.3054C30.3538 44.1177 32.1302 42.3413 34.3179 42.3413C35.2299 42.3413 36.0496 42.6602 36.7321 43.1609L37.6561 42.4098V31.9125L28.7891 30.2852V61.4076L37.6561 58.1499V48.4632C36.9437 49.5243 35.7336 50.2217 34.3656 50.2217H34.3626Z" fill="#3170B5"/>
<path opacity="0.65" d="M44.7075 40.0191C45.8908 40.0191 46.8475 39.0176 46.8475 37.8314C46.8475 36.6481 45.8908 35.6914 44.7075 35.6914C44.4542 35.6914 44.2157 35.7451 43.9922 35.8285V39.888C44.2157 39.9684 44.4542 40.0191 44.7075 40.0191Z" fill="#EED116"/>
<path opacity="0.53" d="M48.6638 37.8308C48.6638 38.4686 48.5267 39.0617 48.2525 39.5625L52.7172 43.1152C53.373 42.6354 54.1568 42.3254 55.0212 42.2986V28.472L43.9844 24.6719V33.9353C44.2169 33.8935 44.4553 33.8667 44.6997 33.8667C46.8874 33.8667 48.6638 35.6431 48.6638 37.8308Z" fill="#3170B5"/>
<path opacity="0.65" d="M52.9531 46.259C52.9531 47.4214 53.8771 48.3603 55.0305 48.3931V44.125C53.8771 44.1608 52.9531 45.1414 52.9531 46.259Z" fill="#EED116"/>
<path opacity="0.53" d="M51.1722 46.2549C51.1722 45.6171 51.3093 45.024 51.5835 44.5232L47.1664 40.9258C46.4839 41.4265 45.6643 41.7454 44.7522 41.7454C44.4899 41.7454 44.2366 41.7156 43.9922 41.6679V66.8323L55.029 61.4048V50.216C52.892 50.1564 51.1752 48.4068 51.1752 46.2579L51.1722 46.2549Z" fill="#3170B5"/>
<path opacity="0.53" d="M61.3594 20.5117V40.0131L61.9674 39.5184C61.6932 38.9729 61.5561 38.4245 61.5561 37.7867C61.5561 35.599 63.3325 33.8226 65.5202 33.8226C67.7078 33.8226 69.4842 35.599 69.4842 37.7867C69.4842 39.9744 67.7078 41.7508 65.5202 41.7508C64.6081 41.7508 63.7885 41.4319 63.1059 40.9311L61.3594 42.3528V73.3471L74.7478 62.4891V28.2908L61.3594 20.5117Z" fill="#3170B5"/>
<path opacity="0.65" d="M65.4291 40.0191C66.6123 40.0191 67.5691 39.0176 67.5691 37.8314C67.5691 36.6481 66.6123 35.6914 65.4291 35.6914C64.2458 35.6914 63.2891 36.6929 63.2891 37.8791C63.2891 39.0653 64.2458 40.0191 65.4291 40.0191Z" fill="#32A583"/>
<path opacity="0.53" d="M57.5479 43.1183C56.8654 42.6176 56.0457 42.2987 55.1337 42.2987C55.0979 42.2987 55.0622 42.3017 55.0234 42.3047V44.1287C55.0443 44.1287 55.0652 44.1228 55.086 44.1228C56.2693 44.1228 57.226 45.0795 57.226 46.2628C57.226 47.446 56.2693 48.4028 55.086 48.4028C55.0652 48.4028 55.0443 48.3968 55.0234 48.3968V50.2209C55.0592 50.2209 55.095 50.2268 55.1337 50.2268C57.3214 50.2268 59.0978 48.4504 59.0978 46.2628C59.0978 45.6249 58.9607 45.0795 58.6865 44.5311L61.357 42.3553V40.0156L57.5479 43.1183Z" fill="#3170B5"/>
<path opacity="0.53" d="M42.5651 37.8738C42.5651 36.9409 43.1612 36.1302 43.9898 35.8232V33.9336C42.1449 34.2704 40.7411 35.8858 40.7411 37.8291C40.7411 38.4669 40.8782 39.0124 41.1524 39.5608L37.6562 42.4072V48.4606C38.0795 47.8287 38.3269 47.0716 38.3269 46.255C38.3269 45.6172 38.1898 45.0717 37.9156 44.5233L42.3327 40.9259C42.8185 41.2835 43.3758 41.5458 43.9868 41.668V39.8857C43.1583 39.5906 42.5622 38.8067 42.5622 37.8768L42.5651 37.8738Z" fill="#3170B5"/>
</svg>
